<svg enable-background="new 0 0 140 101.308" height="140" viewBox="0 0 140 101.308" width="140" xmlns="http://www.w3.org/2000/svg"><path d="m121.323 82.947c-2.493 2.467-6.939 5.268-14.239 5.516-3.375.115-7.317.128-9.12.128-1.968 0-19.325 0-39.22 0 14.269-13.859 26.717-25.949 28.129-27.32 1.294-1.257 4.203-4.04 6.713-6.3 5.509-4.961 10.469-5.959 13.976-5.926 5.496.052 10.494 2.296 14.067 5.919 7.642 7.812 7.462 20.296-.306 27.983m9.394-36.875c-5.86-5.976-14.029-9.741-23.109-9.742-7.849-.001-14.607 2.706-20.507 7.51-2.572 2.094-5.27 4.602-8.664 7.898-1.686 1.637-50.562 49.062-50.562 49.062 2.562.365 6.086.474 9.228.494 2.944.018 59.1.013 61.451.013 4.731 0 7.81-.005 11.118-.247 7.585-.554 14.751-3.336 20.544-9.024 12.863-12.632 13.056-33.133.501-45.964z" fill="#00a3ff"/><path d="m51.861 43.022c-5.745-4.3-12.177-6.703-19.469-6.693-9.08.001-17.249 3.766-23.109 9.742-12.555 12.832-12.362 33.333.501 45.965 5.165 5.072 11.421 7.831 18.093 8.763l12.585-12.211c-2.035-.008-4.955-.036-7.546-.124-7.299-.248-11.745-3.049-14.239-5.517-7.767-7.687-7.948-20.171-.305-27.983 3.573-3.623 8.571-5.867 14.067-5.919 3.444-.014 8.117.986 13.399 5.364 2.521 2.09 8.119 7.01 10.574 9.225.125.113.276.123.422.003l8.665-8.454c.15-.146.141-.342-.007-.475-4.168-3.768-10.075-9.038-13.631-11.686" fill="#00c8dc"/><path d="m111.015 28.991c-5.979-16.888-22.079-28.991-41.015-28.991-21.722 0-39.723 15.973-42.982 36.78 1.747-.294 3.541-.45 5.374-.45 2.55-.004 4.993.294 7.34.859.046.01.092.015.137.026 2.943-14.049 15.362-24.483 30.131-24.483 12.3 0 23.091 7.419 27.956 17.932.077.165.206.22.339.184 3.659-1.005 8.046-1.59 12.282-1.278.413.03.572-.202.438-.579" fill="#006eff"/></svg>